%FSTAX23Y23*%
%MOIN*%
%SFA1B1*%

%IPPOS*%
%ADD10C,0.010000*%
%ADD11C,0.019685*%
%ADD12C,0.003937*%
%ADD13C,0.007874*%
%LNbmi088_i2c_breakout_v1.0_pcb-1*%
%LPD*%
G54D10*
X0603Y01919D02*
D01*
X0603Y01919*
X0603Y0192*
X0603Y01921*
X06029Y01921*
X06029Y01922*
X06029Y01923*
X06029Y01923*
X06028Y01924*
X06028Y01925*
X06027Y01925*
X06027Y01926*
X06027Y01926*
X06026Y01927*
X06025Y01927*
X06025Y01927*
X06024Y01928*
X06024Y01928*
X06023Y01928*
X06022Y01928*
X06022Y01928*
X06021Y01929*
X0602Y01929*
X06019*
X06019Y01929*
X06018Y01928*
X06017Y01928*
X06017Y01928*
X06016Y01928*
X06015Y01928*
X06015Y01927*
X06014Y01927*
X06014Y01927*
X06013Y01926*
X06013Y01926*
X06012Y01925*
X06012Y01925*
X06011Y01924*
X06011Y01923*
X06011Y01923*
X0601Y01922*
X0601Y01921*
X0601Y01921*
X0601Y0192*
X0601Y01919*
X0601Y01919*
X0601Y01918*
X0601Y01917*
X0601Y01917*
X0601Y01916*
X0601Y01915*
X06011Y01915*
X06011Y01914*
X06011Y01913*
X06012Y01913*
X06012Y01912*
X06013Y01912*
X06013Y01911*
X06014Y01911*
X06014Y0191*
X06015Y0191*
X06015Y0191*
X06016Y01909*
X06017Y01909*
X06017Y01909*
X06018Y01909*
X06019Y01909*
X06019Y01909*
X0602*
X06021Y01909*
X06022Y01909*
X06022Y01909*
X06023Y01909*
X06024Y01909*
X06024Y0191*
X06025Y0191*
X06025Y0191*
X06026Y01911*
X06027Y01911*
X06027Y01912*
X06027Y01912*
X06028Y01913*
X06028Y01913*
X06029Y01914*
X06029Y01915*
X06029Y01915*
X06029Y01916*
X0603Y01917*
X0603Y01917*
X0603Y01918*
X0603Y01919*
X06036D02*
D01*
X06036Y0192*
X06035Y01921*
X06035Y01922*
X06035Y01923*
X06035Y01924*
X06034Y01925*
X06034Y01926*
X06033Y01927*
X06033Y01928*
X06032Y01929*
X06031Y0193*
X0603Y0193*
X0603Y01931*
X06029Y01932*
X06028Y01932*
X06027Y01933*
X06026Y01933*
X06025Y01934*
X06024Y01934*
X06023Y01934*
X06021Y01934*
X0602Y01934*
X06019*
X06018Y01934*
X06017Y01934*
X06016Y01934*
X06015Y01934*
X06014Y01933*
X06013Y01933*
X06012Y01932*
X06011Y01932*
X0601Y01931*
X06009Y0193*
X06008Y0193*
X06008Y01929*
X06007Y01928*
X06006Y01927*
X06006Y01926*
X06005Y01925*
X06005Y01924*
X06005Y01923*
X06004Y01922*
X06004Y01921*
X06004Y0192*
X06004Y01919*
X06004Y01918*
X06004Y01916*
X06004Y01915*
X06005Y01914*
X06005Y01913*
X06005Y01912*
X06006Y01911*
X06006Y0191*
X06007Y01909*
X06008Y01908*
X06008Y01908*
X06009Y01907*
X0601Y01906*
X06011Y01906*
X06012Y01905*
X06013Y01904*
X06014Y01904*
X06015Y01904*
X06016Y01903*
X06017Y01903*
X06018Y01903*
X06019Y01903*
X0602*
X06021Y01903*
X06023Y01903*
X06024Y01903*
X06025Y01904*
X06026Y01904*
X06027Y01904*
X06028Y01905*
X06029Y01906*
X0603Y01906*
X0603Y01907*
X06031Y01908*
X06032Y01908*
X06033Y01909*
X06033Y0191*
X06034Y01911*
X06034Y01912*
X06035Y01913*
X06035Y01914*
X06035Y01915*
X06035Y01916*
X06036Y01918*
X06036Y01919*
X05816Y0205D02*
Y02063D01*
X05829*
Y0205*
X05816*
X06057Y02097D02*
X06097Y02037D01*
Y02097D02*
X06057Y02037D01*
X05817Y02053D02*
Y02063D01*
X05827*
Y02053*
X05817*
X0574Y02024D02*
Y02014D01*
X0576Y01994*
X0578Y02014*
Y02024*
X0576Y01994D02*
Y01964D01*
X06094Y0195D02*
X06054Y0189D01*
Y0195D02*
X06094D01*
X06054Y0189D02*
X06094D01*
G54D11*
X0602Y01919D02*
Y02134D01*
X0575Y01918D02*
X05775Y01894D01*
X05747Y01918D02*
X0575D01*
X05749D02*
X05775Y01944D01*
X05747Y01918D02*
X05749D01*
X05747D02*
X06022D01*
X05995Y02114D02*
X0602Y02139D01*
X06045Y02114*
G54D12*
X05988Y0195D02*
Y02068D01*
X05811D02*
X05988D01*
X05811Y0195D02*
Y02068D01*
Y0195D02*
X05988D01*
X0602Y01917D02*
Y01919D01*
X05874Y02098D02*
X05937D01*
X05874Y02129D02*
X05937D01*
Y02098D02*
Y02129D01*
X05874Y02098D02*
Y02129D01*
X05938Y01867D02*
Y01898D01*
X06001Y01867D02*
Y01898D01*
X05938D02*
X06001D01*
X05938Y01867D02*
X06001D01*
G54D13*
X05996Y02155D02*
X05991Y02161D01*
Y02172*
X05996Y02177*
X06002*
X06007Y02172*
Y02166*
Y02172*
X06013Y02177*
X06019*
X06024Y02172*
Y02161*
X06019Y02155*
X05991Y02188D02*
X06013D01*
X06024Y022*
X06013Y02211*
X05991*
X05996Y02222D02*
X05991Y02227D01*
Y02239*
X05996Y02244*
X06002*
X06007Y02239*
Y02233*
Y02239*
X06013Y02244*
X06019*
X06024Y02239*
Y02227*
X06019Y02222*
X05895Y02177D02*
X05889Y02172D01*
Y02161*
X05895Y02155*
X05917*
X05923Y02161*
Y02172*
X05917Y02177*
X05906*
Y02166*
X05923Y02188D02*
X05889D01*
X05923Y02211*
X05889*
Y02222D02*
X05923D01*
Y02239*
X05917Y02244*
X05895*
X05889Y02239*
Y02222*
X05792Y02178D02*
X05787Y02173D01*
Y02162*
X05792Y02156*
X05798*
X05804Y02162*
Y02173*
X05809Y02178*
X05815*
X0582Y02173*
Y02162*
X05815Y02156*
X05792Y02212D02*
X05787Y02206D01*
Y02195*
X05792Y02189*
X05815*
X0582Y02195*
Y02206*
X05815Y02212*
X05787Y02223D02*
X0582D01*
Y02245*
X05711Y02098D02*
X05705Y02092D01*
Y02081*
X05711Y02075*
X05716*
X05722Y02081*
Y02092*
X05728Y02098*
X05733*
X05739Y02092*
Y02081*
X05733Y02075*
X05705Y02109D02*
X05739D01*
Y02125*
X05733Y02131*
X05711*
X05705Y02125*
Y02109*
X05739Y02142D02*
X05716D01*
X05705Y02153*
X05716Y02164*
X05739*
X05722*
Y02142*
X05989Y01756D02*
Y01768D01*
Y01762*
X06022*
Y01756*
Y01768*
Y01784D02*
X05989D01*
X06022Y01807*
X05989*
Y01818D02*
Y0184D01*
Y01829*
X06022*
Y01868D02*
X05989D01*
X06005Y01851*
Y01873*
X05887Y01756D02*
Y01768D01*
Y01762*
X05921*
Y01756*
Y01768*
Y01784D02*
X05887D01*
X05921Y01807*
X05887*
Y01818D02*
Y0184D01*
Y01829*
X05921*
X05893Y01851D02*
X05887Y01857D01*
Y01868*
X05893Y01873*
X05898*
X05904Y01868*
Y01862*
Y01868*
X0591Y01873*
X05915*
X05921Y01868*
Y01857*
X05915Y01851*
X0579Y01757D02*
Y01769D01*
Y01763*
X05823*
Y01757*
Y01769*
Y01785D02*
X0579D01*
X05823Y01808*
X0579*
Y01819D02*
Y01841D01*
Y0183*
X05823*
Y01874D02*
Y01852D01*
X05801Y01874*
X05795*
X0579Y01869*
Y01858*
X05795Y01852*
X05702Y01829D02*
Y0184D01*
Y01835*
X05736*
Y01829*
Y0184*
Y01857D02*
X05702D01*
X05736Y01879*
X05702*
Y01891D02*
Y01913D01*
Y01902*
X05736*
Y01924D02*
Y01935D01*
Y0193*
X05702*
X05708Y01924*
M02*