%FSTAX23Y23*%
%MOIN*%
%SFA1B1*%

%IPPOS*%
%ADD10C,0.010000*%
%ADD14R,0.009843X0.018701*%
%ADD15R,0.018701X0.009843*%
%ADD16R,0.011811X0.031496*%
%ADD22O,0.059055X0.078740*%
%ADD23C,0.019685*%
%LNbmi088_i2c_breakout_v1.0_pcb-1*%
%LPD*%
G36*
X06102Y01751D02*
X06024D01*
X06022Y01756*
X06033Y01767*
X06037Y01764*
X06045Y0176*
X06055Y01759*
X06064Y0176*
X06072Y01764*
X0608Y01769*
X06085Y01777*
X06089Y01785*
X0609Y01795*
Y01814*
X06089Y01824*
X06085Y01832*
X0608Y0184*
X06072Y01845*
X06064Y01849*
X06055Y0185*
X06045Y01849*
X06037Y01845*
X06029Y0184*
X06024Y01832*
X0602Y01824*
X06019Y01814*
Y01795*
X0602Y01786*
X05996Y01762*
X05978*
X05976Y01767*
X0598Y01769*
X05985Y01777*
X05989Y01785*
X0599Y01795*
Y01814*
X05989Y01824*
X05985Y01832*
X0598Y0184*
X05972Y01845*
X05964Y01849*
X05955Y0185*
X05945Y01849*
X05937Y01845*
X0593Y0184*
X0589Y0188*
Y01893*
X05895Y01895*
X05901Y01888*
X05905Y01886*
X05909Y01885*
X05914*
X05918Y01883*
X05922Y01882*
X05931*
Y01861*
X05954*
Y01904*
X05943*
X05941Y01904*
X05931*
Y01943*
X05934*
Y01963*
Y01982*
X05924*
Y01978*
X05856*
Y01982*
X05846*
Y01963*
Y01943*
X05848*
X05851Y01938*
X05849Y01937*
X05849Y01932*
Y0187*
X05849Y01865*
X05852Y01862*
X05859Y01855*
X05857Y0185*
X05855Y0185*
X05845Y01849*
X05837Y01845*
X05829Y0184*
X05824Y01832*
X0582Y01824*
X05819Y01814*
Y01795*
X0582Y01786*
X05797Y01763*
X05779*
X05777Y01768*
X0578Y01769*
X05785Y01777*
X05789Y01785*
X0579Y01795*
Y01814*
X05789Y01824*
X05785Y01832*
X0578Y0184*
X05772Y01845*
X05766Y01848*
Y01982*
X05781Y01998*
X05824*
X05826Y01998*
X0584*
Y02019*
X05826*
X05824Y0202*
X05776*
X05772Y02019*
X05768Y02016*
X05747Y01995*
X05744Y01991*
X05743Y01987*
Y01848*
X05737Y01845*
X05729Y0184*
X05724Y01832*
X05723Y01832*
X05718Y01833*
Y0202*
X05742Y02044*
X0583*
Y0204*
X05831Y02036*
X05833Y02032*
X05837Y0203*
X05841Y02029*
X05845Y0203*
X05849Y02032*
X0585Y02034*
X05855Y02034*
X05863Y02026*
X05863*
X05866Y02024*
X05871Y02023*
X0589*
X0589*
X05929*
X05933Y02024*
X05937Y02026*
X05946Y02035*
X05954*
Y02039*
X0597*
Y02051*
X0597Y02051*
X05971Y02055*
X0597Y02058*
Y02065*
X0597Y02066*
Y0207*
X05968*
X05967Y02072*
X05956Y02083*
X05953Y02085*
X05952Y02085*
X05949Y02088*
X05948Y02091*
Y02109*
X05933*
X05917*
Y02091*
Y02088*
X05913Y02086*
X05889*
Y02092*
X05889*
Y02135*
X05866*
Y02129*
X05861Y02127*
X05847Y0214*
X05843Y02143*
X05839Y02143*
X05825*
X05823Y02146*
X05817Y02148*
X05811*
X05805Y02146*
X05801Y02141*
X05798Y02135*
Y02129*
X05801Y02123*
X05805Y02119*
X05811Y02117*
X05817*
X05823Y02119*
X05825Y02121*
X05835*
X0585Y02106*
X05854Y02103*
X05858Y02103*
X05866*
Y02092*
X05866*
Y02074*
X05866Y02074*
X05865*
Y02055*
X05855*
Y02074*
X05846*
Y0207*
X0583*
Y02066*
X05738*
X05733Y02065*
X0573Y02062*
X05713Y02045*
X05708Y02047*
Y02251*
X05738*
X05739Y02246*
X05737Y02245*
X05729Y0224*
X05724Y02232*
X0572Y02224*
X05719Y02214*
Y02195*
X0572Y02185*
X05724Y02177*
X05729Y02169*
X05737Y02164*
X05745Y0216*
X05755Y02159*
X05764Y0216*
X05772Y02164*
X0578Y02169*
X05785Y02177*
X05789Y02185*
X0579Y02195*
Y02214*
X05789Y02224*
X05785Y02232*
X0578Y0224*
X05772Y02245*
X0577Y02246*
X05771Y02251*
X05838*
X05839Y02246*
X05837Y02245*
X05829Y0224*
X05824Y02232*
X0582Y02224*
X05819Y02214*
Y02195*
X0582Y02185*
X05824Y02177*
X05829Y02169*
X05837Y02164*
X05845Y0216*
X05855Y02159*
X05864Y0216*
X05872Y02164*
X0588Y02169*
X05885Y02177*
X05889Y02185*
X0589Y02195*
Y02214*
X05889Y02224*
X05885Y02232*
X0588Y0224*
X05872Y02245*
X0587Y02246*
X05871Y02251*
X0593*
X05931Y02246*
X05926Y02243*
X0592Y02234*
X05916Y02225*
X05915Y02214*
Y0221*
X05955*
X05994*
Y02214*
X05993Y02225*
X05989Y02234*
X05983Y02243*
X05978Y02246*
X05979Y02251*
X06038*
X06039Y02246*
X06037Y02245*
X06029Y0224*
X06024Y02232*
X0602Y02224*
X06019Y02214*
Y02195*
X0602Y02185*
X06024Y02177*
X06029Y02169*
X06037Y02164*
X06045Y0216*
X06055Y02159*
X06064Y0216*
X06072Y02164*
X0608Y02169*
X06085Y02177*
X06089Y02185*
X0609Y02195*
Y02214*
X06089Y02224*
X06085Y02232*
X0608Y0224*
X06072Y02245*
X0607Y02246*
X06071Y02251*
X06102*
Y01751*
G37*
%LNbmi088_i2c_breakout_v1.0_pcb-2*%
%LPC*%
G36*
X05994Y022D02*
X0596D01*
Y02155*
X05965Y02156*
X05974Y0216*
X05983Y02166*
X05989Y02175*
X05993Y02184*
X05994Y02195*
Y022*
G37*
G36*
X0595D02*
X05915D01*
Y02195*
X05916Y02184*
X0592Y02175*
X05926Y02166*
X05935Y0216*
X05944Y02156*
X0595Y02155*
Y022*
G37*
G36*
X05948Y02139D02*
X05938D01*
Y02119*
X05948*
Y02139*
G37*
G36*
X05928D02*
X05917D01*
Y02119*
X05928*
Y02139*
G37*
G36*
X06003Y0202D02*
D01*
X05975*
X05974Y02019*
X0596*
Y01998*
X05974*
X05975Y01998*
X05999*
X06009Y01988*
X06012Y01985*
X06017Y01984*
X06052*
X06055Y01982*
X0606Y0198*
X06067*
X06072Y01982*
X06077Y01987*
X06079Y01992*
Y01999*
X06077Y02004*
X06072Y02009*
X06067Y02011*
X0606*
X06055Y02009*
X06052Y02007*
X06021*
X06011Y02016*
X06008Y02019*
X06003Y0202*
G37*
G36*
X05836Y01982D02*
X05826D01*
Y01968*
X05836*
Y01982*
G37*
G36*
Y01958D02*
X05826D01*
Y01943*
X05836*
Y01958*
G37*
G36*
X05954Y01982D02*
X05944D01*
Y01963*
Y01943*
X05954*
Y01948*
X0597*
Y01952*
X06023*
X06045Y0193*
Y01926*
X06047Y01921*
X06052Y01916*
X06057Y01914*
X06064*
X06069Y01916*
X06074Y01921*
X06076Y01926*
Y01933*
X06074Y01939*
X06069Y01943*
X06064Y01945*
X06061*
X06035Y01971*
X06032Y01973*
X06027Y01974*
X0597*
Y01978*
X05954*
Y01982*
G37*
G36*
X06013Y01908D02*
X06002D01*
Y01887*
X06013*
Y01908*
G37*
G36*
X05992D02*
X05982D01*
Y01887*
X05992*
Y01908*
G37*
G36*
X06013Y01877D02*
X06002D01*
Y01857*
X06013*
Y01877*
G37*
G36*
X05992D02*
X05982D01*
Y01857*
X05992*
Y01877*
G37*
%LNbmi088_i2c_breakout_v1.0_pcb-3*%
%LPD*%
G54D10*
X05942Y01882D02*
Y01892D01*
X05941Y01893D02*
X05942Y01892D01*
X05922Y01893D02*
X05941D01*
X05919Y01896D02*
X05922Y01893D01*
X0592Y01897D02*
Y01963D01*
X05919Y01896D02*
X0592Y01897D01*
X05899Y0192D02*
X05901Y01918D01*
Y01904D02*
X05909Y01896D01*
X05901Y01904D02*
Y01918D01*
X05909Y01896D02*
X05919D01*
X05879Y01929D02*
X059Y0195D01*
X05879Y01875D02*
Y01929D01*
X05955Y018D02*
Y01801D01*
X05879Y01875D02*
X05926Y01828D01*
X06017Y01996D02*
X06063D01*
X06003Y02009D02*
X06017Y01996D01*
X06027Y01963D02*
X06061Y0193D01*
X05959Y01963D02*
X06027D01*
X05939Y02054D02*
X05939Y02055D01*
X05929Y02034D02*
X05939Y02044D01*
X0589Y02034D02*
X05929D01*
X05939Y02044D02*
Y02054D01*
X0589Y02034D02*
X059Y02044D01*
Y02054D02*
X059Y02055D01*
X059Y02044D02*
Y02054D01*
X05861Y02044D02*
Y02054D01*
Y02044D02*
X05871Y02034D01*
X0586Y02055D02*
X05861Y02054D01*
X05871Y02034D02*
X0589D01*
X05735Y01751D02*
X05801D01*
X05707Y01779D02*
Y02024D01*
Y01779D02*
X05735Y01751D01*
X05876Y01959D02*
X0588Y01963D01*
X05876Y01949D02*
Y01959D01*
X0586Y01932D02*
X05876Y01949D01*
X0586Y0187D02*
Y01932D01*
X059Y0195D02*
Y01963D01*
X0586Y0187D02*
X05903Y01826D01*
Y01786D02*
Y01826D01*
Y01786D02*
X05938Y0175D01*
X05927Y01828D02*
X05955Y01801D01*
X05926Y01828D02*
X05927D01*
X05938Y0175D02*
X06D01*
X06055Y01805*
X05841Y02055D02*
X05841Y02054D01*
X05841Y02055D02*
X05841Y02055D01*
X05738Y02055D02*
X05841D01*
X05707Y02024D02*
X05738Y02055D01*
X05801Y01751D02*
X05855Y01805D01*
X05841Y0204D02*
Y02054D01*
X05877Y02074D02*
X05878Y02075D01*
X05949*
X05959Y02065*
Y02055D02*
Y02065D01*
Y02055D02*
X05959Y02055D01*
X059Y01963D02*
X059Y01963D01*
X05776Y02009D02*
X05824D01*
X05755Y01987D02*
X05776Y02009D01*
X05755Y018D02*
Y01987D01*
X0588Y02055D02*
Y02072D01*
Y02055D02*
X0588Y02055D01*
X05877Y02074D02*
X0588Y02072D01*
X05877Y02074D02*
Y02114D01*
X05858D02*
X05877D01*
X05814Y02132D02*
X05839D01*
X05858Y02114*
X05975Y02009D02*
X06003D01*
X05959Y02055D02*
X0596Y02055D01*
X05855Y02195D02*
Y02205D01*
G54D14*
X0592Y02055D03*
X059D03*
X05939D03*
X05959D03*
X0588D03*
X0586D03*
X05841D03*
X0592Y01963D03*
X059D03*
X05939D03*
X05959D03*
X0588D03*
X0586D03*
X05841D03*
G54D15*
X05824Y02009D03*
X05975D03*
G54D16*
X05877Y02114D03*
X05933D03*
X05997Y01882D03*
X05942D03*
G54D22*
X06055Y01805D03*
X05955D03*
X05855D03*
X05755D03*
X06055Y02205D03*
X05955D03*
X05855D03*
X05755D03*
G54D23*
X05899Y0192D03*
X06063Y01996D03*
X06061Y0193D03*
X05814Y02132D03*
M02*