%FSTAX23Y23*%
%MOIN*%
%SFA1B1*%

%IPPOS*%
%ADD10C,0.010000*%
%ADD22O,0.059055X0.078740*%
%ADD23C,0.019685*%
%ADD24R,0.023622X0.019685*%
%ADD25R,0.031496X0.011811*%
%LNbmi088_i2c_breakout_v1.0_pcb-1*%
%LPD*%
G36*
X06102Y01752D02*
X05711D01*
X05707Y01756*
X05712Y02252*
X05739*
X0574Y02247*
X05737Y02245*
X05729Y0224*
X05724Y02232*
X0572Y02224*
X05719Y02214*
Y02195*
X0572Y02185*
X05724Y02177*
X05729Y02169*
X05737Y02164*
X05744Y02161*
Y0212*
X05738*
Y02088*
Y02061*
X05744*
Y02023*
X05734*
Y02*
X05777*
X0578Y01996*
Y01964*
X0576*
Y01948*
Y01932*
X0578*
Y01921*
X05781Y01917*
X05783Y01913*
X05807Y01889*
X0581Y01887*
X05814Y01886*
X06028*
X06032Y01887*
X06036Y01889*
X06061Y01914*
X06064*
X06069Y01916*
X06074Y01921*
X06076Y01926*
Y01933*
X06074Y01939*
X06069Y01943*
X06064Y01945*
X06057*
X06052Y01943*
X06047Y01939*
X06045Y01933*
Y0193*
X06023Y01908*
X05921*
X05918Y01913*
X05919Y01915*
X0588*
X05881Y01913*
X05877Y01908*
X05819*
X05802Y01925*
Y02097*
X05801Y02101*
X05799Y02105*
X05793Y02111*
X05789Y02113*
X05785Y02114*
X05773*
Y0212*
X05766*
Y02161*
X05772Y02164*
X0578Y02169*
X05785Y02177*
X05789Y02185*
X0579Y02195*
Y02214*
X05789Y02224*
X05785Y02232*
X0578Y0224*
X05772Y02245*
X05769Y02247*
X0577Y02252*
X05839*
X0584Y02247*
X05837Y02245*
X05829Y0224*
X05824Y02232*
X0582Y02224*
X05819Y02214*
Y02195*
X0582Y02185*
X05824Y02177*
X05829Y02169*
X05837Y02164*
X05843Y02161*
Y0212*
X05836*
Y02088*
Y02061*
X05843*
Y02023*
X05832*
Y02*
X05875*
X0588Y02001*
X05881Y02*
X05925Y01956*
X05928Y01954*
X05933Y01953*
X06032*
X06036Y01954*
X0604Y01956*
X06063Y0198*
X06067*
X06072Y01982*
X06077Y01987*
X06079Y01992*
Y01999*
X06077Y02004*
X06072Y02009*
X06067Y02011*
X0606*
X06055Y02009*
X0605Y02004*
X06048Y01999*
Y01996*
X06027Y01975*
X05937*
X059Y02012*
Y021*
X059Y02104*
X05897Y02108*
X05891Y02114*
X05888Y02116*
X05883Y02117*
X05872*
Y0212*
X05865*
Y02161*
X05872Y02164*
X0588Y02169*
X05885Y02177*
X05889Y02185*
X0589Y02195*
Y02214*
X05889Y02224*
X05885Y02232*
X0588Y0224*
X05872Y02245*
X05869Y02247*
X0587Y02252*
X05939*
X0594Y02247*
X05937Y02245*
X05929Y0224*
X05924Y02232*
X0592Y02224*
X05919Y02214*
Y02195*
X0592Y02185*
X05924Y02177*
X05929Y02169*
X05937Y02164*
X05945Y0216*
X05955Y02159*
X05964Y0216*
X05972Y02164*
X0598Y02169*
X05985Y02177*
X05989Y02185*
X0599Y02195*
Y02214*
X05989Y02224*
X05985Y02232*
X0598Y0224*
X05972Y02245*
X05969Y02247*
X0597Y02252*
X0603*
X06032Y02247*
X06026Y02243*
X0602Y02234*
X06016Y02225*
X06015Y02214*
Y0221*
X06055*
X06094*
Y02214*
X06093Y02225*
X06089Y02234*
X06083Y02243*
X06077Y02247*
X06079Y02252*
X06102*
Y01752*
G37*
%LNbmi088_i2c_breakout_v1.0_pcb-2*%
%LPC*%
G36*
X06094Y022D02*
X0606D01*
Y02155*
X06065Y02156*
X06074Y0216*
X06083Y02166*
X06089Y02175*
X06093Y02184*
X06094Y02195*
Y022*
G37*
G36*
X0605D02*
X06015D01*
Y02195*
X06016Y02184*
X0602Y02175*
X06026Y02166*
X06035Y0216*
X06044Y02156*
X0605Y02155*
Y022*
G37*
G36*
X05819Y02152D02*
Y02137D01*
X05833*
X05831Y02144*
X05825Y02149*
X05819Y02152*
G37*
G36*
X05809D02*
X05803Y02149D01*
X05797Y02144*
X05794Y02137*
X05809*
Y02152*
G37*
G36*
X05833Y02127D02*
X05819D01*
Y02113*
X05825Y02115*
X05831Y02121*
X05833Y02127*
G37*
G36*
X05809D02*
X05794D01*
X05797Y02121*
X05803Y02115*
X05809Y02113*
Y02127*
G37*
G36*
X0588Y01964D02*
X05859D01*
Y01953*
X0588*
Y01964*
G37*
G36*
X05849D02*
X05828D01*
Y01953*
X05849*
Y01964*
G37*
G36*
X0575D02*
X0573D01*
Y01953*
X0575*
Y01964*
G37*
G36*
Y01943D02*
X0573D01*
Y01932*
X0575*
Y01943*
G37*
G36*
X05849D02*
X05828D01*
Y01932*
X05849*
Y01943*
G37*
G36*
X05904Y0194D02*
Y01925D01*
X05919*
X05916Y01931*
X05911Y01937*
X05904Y0194*
G37*
G36*
X0588Y01943D02*
X05859D01*
Y01932*
X05876*
X05876*
X05878*
X05879Y0193*
X0588Y01925*
X0588Y01925*
X05894*
Y0194*
X05888Y01937*
X05887Y01936*
X05883Y01934*
X0588Y01936*
Y01937*
Y01937*
Y01943*
G37*
G36*
X06055Y0185D02*
X06045Y01849D01*
X06037Y01845*
X06029Y0184*
X06024Y01832*
X0602Y01824*
X06019Y01814*
Y01795*
X0602Y01785*
X06024Y01777*
X06029Y01769*
X06037Y01764*
X06045Y0176*
X06055Y01759*
X06064Y0176*
X06072Y01764*
X0608Y01769*
X06085Y01777*
X06089Y01785*
X0609Y01795*
Y01814*
X06089Y01824*
X06085Y01832*
X0608Y0184*
X06072Y01845*
X06064Y01849*
X06055Y0185*
G37*
G36*
X05955D02*
X05945Y01849D01*
X05937Y01845*
X05929Y0184*
X05924Y01832*
X0592Y01824*
X05919Y01814*
Y01795*
X0592Y01785*
X05924Y01777*
X05929Y01769*
X05937Y01764*
X05945Y0176*
X05955Y01759*
X05964Y0176*
X05972Y01764*
X0598Y01769*
X05985Y01777*
X05989Y01785*
X0599Y01795*
Y01814*
X05989Y01824*
X05985Y01832*
X0598Y0184*
X05972Y01845*
X05964Y01849*
X05955Y0185*
G37*
G36*
X05855D02*
X05845Y01849D01*
X05837Y01845*
X05829Y0184*
X05824Y01832*
X0582Y01824*
X05819Y01814*
Y01795*
X0582Y01785*
X05824Y01777*
X05829Y01769*
X05837Y01764*
X05845Y0176*
X05855Y01759*
X05864Y0176*
X05872Y01764*
X0588Y01769*
X05885Y01777*
X05889Y01785*
X0589Y01795*
Y01814*
X05889Y01824*
X05885Y01832*
X0588Y0184*
X05872Y01845*
X05864Y01849*
X05855Y0185*
G37*
G36*
X05755D02*
X05745Y01849D01*
X05737Y01845*
X05729Y0184*
X05724Y01832*
X0572Y01824*
X05719Y01814*
Y01795*
X0572Y01785*
X05724Y01777*
X05729Y01769*
X05737Y01764*
X05745Y0176*
X05755Y01759*
X05764Y0176*
X05772Y01764*
X0578Y01769*
X05785Y01777*
X05789Y01785*
X0579Y01795*
Y01814*
X05789Y01824*
X05785Y01832*
X0578Y0184*
X05772Y01845*
X05764Y01849*
X05755Y0185*
G37*
%LNbmi088_i2c_breakout_v1.0_pcb-3*%
%LPD*%
G54D10*
X05791Y01921D02*
X05814Y01897D01*
X06028D02*
X06061Y0193D01*
X05814Y01897D02*
X06028D01*
X05791Y01921D02*
Y02097D01*
X05933Y01964D02*
X06032D01*
X06063Y01996*
X05883Y02106D02*
X05889Y021D01*
X05854Y02106D02*
X05883D01*
X05854D02*
Y02204D01*
X05889Y02007D02*
Y021D01*
X05785Y02103D02*
X05791Y02097D01*
X05755Y02103D02*
X05785D01*
X05755D02*
Y02204D01*
X05889Y02007D02*
X05933Y01964D01*
X05854Y02011D02*
Y02062D01*
X05854Y02204D02*
X05855Y02205D01*
X05755D02*
X05755Y02204D01*
X05755Y02011D02*
Y02062D01*
G54D22*
X06055Y01805D03*
X05955D03*
X05855D03*
X05755D03*
X06055Y02205D03*
X05955D03*
X05855D03*
X05755D03*
G54D23*
X05899Y0192D03*
X06063Y01996D03*
X06061Y0193D03*
X05814Y02132D03*
G54D24*
X05755Y02076D03*
Y02104D03*
X05854Y02076D03*
Y02104D03*
G54D25*
X05854Y02011D03*
Y01948D03*
X05755Y02011D03*
Y01948D03*
M02*